<?xml version="1.0" encoding="UTF-8"?>
<svg width="244px" height="298px" viewBox="0 0 244 298" version="1.1" xmlns="http://www.w3.org/2000/svg" xmlns:xlink="http://www.w3.org/1999/xlink">
    <!-- Generator: Sketch 46.2 (44496) - http://www.bohemiancoding.com/sketch -->
    <title>g10</title>
    <desc>Created with Sketch.</desc>
    <defs></defs>
    <g id="Page-1" stroke="none" stroke-width="1" fill="none" fill-rule="evenodd">
        <g id="g10" transform="translate(122.000000, 149.920000) scale(-1, 1) rotate(-180.000000) translate(-122.000000, -149.920000) translate(-1.000000, 0.920000)">
            <g id="g94" transform="translate(0.000000, -0.000000)">
                <g id="g96-Clipped">
                    <g id="g96" transform="translate(-0.000007, 0.666655)">
                        <g id="g102" transform="translate(2.954000, 1.808800)" fill-rule="nonzero" fill="#012169">
                            <path d="M119.999997,0 C119.210664,0 118.471997,0.185333329 117.86133,0.53333332 C90.5613311,16.1599996 68.8959983,34.4839991 51.6266654,56.5519986 C32.0133325,81.615998 17.5866662,111.526664 8.74666645,145.44933 C3.32133325,166.274663 0.54133332,185.730662 0.249333327,204.929328 C0.0613333318,217.351995 0.0586666652,229.975994 0.0546666653,242.185327 C0.0546666653,248.95866 0.053333332,255.731994 0.0213333328,262.505327 C0.0079999998,265.23466 1.85866662,266.235993 2.64799993,266.663993 L2.80133326,266.74666 C12.701333,272.25466 23.1573328,276.835993 34.7613325,280.751993 C53.3106653,287.011993 72.3039982,291.051993 91.2093311,292.759993 C99.2546642,293.487993 109.842664,294.322659 120.387997,294.322659 L121.84133,294.317326 C155.739996,294.077326 186.150662,288.487993 214.811995,277.23066 C219.911995,275.22666 224.909328,272.78666 229.741328,270.42666 C232.151994,269.249327 234.563994,268.07066 236.991994,266.943993 C239.087994,265.97066 240.099994,264.303993 240.083994,261.84666 C240.055994,257.26266 239.986661,252.707994 239.917327,248.15866 C239.831994,242.486661 239.743994,236.625327 239.739994,230.815994 C239.798661,230.519994 239.807994,230.217328 239.763994,229.919994 C239.767994,226.815994 239.810661,223.710661 239.853327,220.603994 C239.949327,213.613328 240.049327,206.385328 239.679994,199.261328 C237.826661,163.509329 229.129328,129.227997 213.831995,97.3679976 C196.339995,60.9439985 170.259996,31.2613326 136.314663,9.1453331 C132.051997,6.36933317 127.646663,3.73866657 123.38533,1.19466664 L122.478664,0.651999984 C121.778664,0.233333328 120.89733,0 119.999997,0" id="path104"></path>
                        </g>
                        <g id="g106" transform="translate(2.954000, 1.808800)" stroke="#582C83" stroke-width="1.3333333">
                            <path d="M119.999997,0 C119.210664,0 118.471997,0.185333329 117.86133,0.53333332 C90.5613311,16.1599996 68.8959983,34.4839991 51.6266654,56.5519986 C32.0133325,81.615998 17.5866662,111.526664 8.74666645,145.44933 C3.32133325,166.274663 0.54133332,185.730662 0.249333327,204.929328 C0.0613333318,217.351995 0.0586666652,229.975994 0.0546666653,242.185327 C0.0546666653,248.95866 0.053333332,255.731994 0.0213333328,262.505327 C0.0079999998,265.23466 1.85866662,266.235993 2.64799993,266.663993 L2.80133326,266.74666 C12.701333,272.25466 23.1573328,276.835993 34.7613325,280.751993 C53.3106653,287.011993 72.3039982,291.051993 91.2093311,292.759993 C99.2546642,293.487993 109.842664,294.322659 120.387997,294.322659 L121.84133,294.317326 C155.739996,294.077326 186.150662,288.487993 214.811995,277.23066 C219.911995,275.22666 224.909328,272.78666 229.741328,270.42666 C232.151994,269.249327 234.563994,268.07066 236.991994,266.943993 C239.087994,265.97066 240.099994,264.303993 240.083994,261.84666 C240.055994,257.26266 239.986661,252.707994 239.917327,248.15866 C239.831994,242.486661 239.743994,236.625327 239.739994,230.815994 C239.798661,230.519994 239.807994,230.217328 239.763994,229.919994 C239.767994,226.815994 239.810661,223.710661 239.853327,220.603994 C239.949327,213.613328 240.049327,206.385328 239.679994,199.261328 C237.826661,163.509329 229.129328,129.227997 213.831995,97.3679976 C196.339995,60.9439985 170.259996,31.2613326 136.314663,9.1453331 C132.051997,6.36933317 127.646663,3.73866657 123.38533,1.19466664 L122.478664,0.651999984 C121.778664,0.233333328 120.89733,0 119.999997,0 Z" id="path108"></path>
                        </g>
                        <g id="g110" transform="translate(5.384933, 4.093867)" fill-rule="nonzero" fill="#012169">
                            <path d="M234.666661,227.999994 C234.761327,227.999994 234.546661,228.166661 234.641327,228.166661 C234.641327,238.691994 234.921327,249.053327 234.986661,259.57866 C234.995994,260.99866 234.567994,261.715993 233.438661,262.239993 C226.093328,265.649327 218.901328,269.519993 211.406661,272.463993 C181.677329,284.139993 150.858663,289.142659 119.391997,289.366659 C109.269331,289.438659 99.1159975,288.733326 89.0186644,287.819993 C70.0306649,286.103993 51.4079987,282.089326 33.1826658,275.941326 C22.3359994,272.279993 11.7959997,267.76666 1.66533329,262.13066 C0.94933331,261.731993 0.25066666,261.467993 0.255999994,260.233327 C0.346666658,241.049327 0.193333329,221.862661 0.485333321,202.683995 C0.789333314,182.667995 3.88666657,163.063996 8.89599978,143.83733 C17.3866662,111.251997 31.1213326,81.6933313 51.2959987,55.9106653 C69.6239983,32.4893325 91.9586644,14.7559996 116.75333,0.563999986 C117.255997,0.27466666 118.162664,0.346666658 118.679997,0.65466665 C123.290664,3.41199991 127.914663,6.15333318 132.427997,9.09466644 C165.197329,30.4439992 191.139995,59.0519985 208.997328,96.2386643 C224.167994,127.83333 232.738661,161.479996 234.585327,197.114662 C235.117327,207.378661 234.666661,217.703995 234.666661,227.999994" id="path112"></path>
                        </g>
                        <g id="g114" transform="translate(5.384933, 4.093867)" stroke="#582C83" stroke-width="1.3333333">
                            <path d="M234.666661,227.999994 C234.761327,227.999994 234.546661,228.166661 234.641327,228.166661 C234.641327,238.691994 234.921327,249.053327 234.986661,259.57866 C234.995994,260.99866 234.567994,261.715993 233.438661,262.239993 C226.093328,265.649327 218.901328,269.519993 211.406661,272.463993 C181.677329,284.139993 150.858663,289.142659 119.391997,289.366659 C109.269331,289.438659 99.1159975,288.733326 89.0186644,287.819993 C70.0306649,286.103993 51.4079987,282.089326 33.1826658,275.941326 C22.3359994,272.279993 11.7959997,267.76666 1.66533329,262.13066 C0.94933331,261.731993 0.25066666,261.467993 0.255999994,260.233327 C0.346666658,241.049327 0.193333329,221.862661 0.485333321,202.683995 C0.789333314,182.667995 3.88666657,163.063996 8.89599978,143.83733 C17.3866662,111.251997 31.1213326,81.6933313 51.2959987,55.9106653 C69.6239983,32.4893325 91.9586644,14.7559996 116.75333,0.563999986 C117.255997,0.27466666 118.162664,0.346666658 118.679997,0.65466665 C123.290664,3.41199991 127.914663,6.15333318 132.427997,9.09466644 C165.197329,30.4439992 191.139995,59.0519985 208.997328,96.2386643 C224.167994,127.83333 232.738661,161.479996 234.585327,197.114662 C235.117327,207.378661 234.666661,217.703995 234.666661,227.999994 Z" id="path116"></path>
                        </g>
                        <g id="g118" transform="translate(28.786666, 3.931200)" fill-rule="nonzero" fill="#FFD100">
                            <path d="M81.3333313,153.333329 C73.0959982,156.303996 65.9559984,161.713329 57.0799986,158.730663 C56.7626652,157.930663 56.4453319,157.130663 56.1279986,156.329329 C62.4053318,153.499996 68.6813316,150.670663 75.6799981,147.515996 L75.6799981,139.64533 C77.9853314,145.226663 79.4973313,148.886663 81.3333313,153.333329 M112.767997,149.563996 C120.93333,149.722663 127.651997,151.28133 131.331997,158.174663 C131.018663,159.014663 130.70533,159.854663 130.390663,160.694663 C122.66533,158.527996 114.93733,156.361329 106.883997,154.103996 C109.047997,148.602663 110.689331,144.43333 112.329331,140.26533 C112.667997,140.367996 113.006664,140.471996 113.34533,140.575996 C113.173331,143.26133 112.999997,145.947996 112.767997,149.563996 M89.0413311,181.070662 C81.207998,198.341328 62.8653318,209.659995 50.2226654,207.406661 C56.7439986,204.197328 64.3546651,200.453328 71.9639982,196.709328 C71.6626649,196.063995 71.3613315,195.418662 71.0599982,194.774662 C66.6253317,195.210662 62.1919984,195.645328 55.7413319,196.279995 C63.4879984,191.582662 69.2319983,188.098662 75.3199981,184.406662 C75.4413314,185.578662 75.5719981,186.849329 75.7853314,188.930662 C80.0293313,186.414662 83.8093312,184.173329 89.0413311,181.070662 M139.407997,207.666661 C123.118664,208.694661 104.351997,196.523995 100.666664,181.931995 C104.510664,184.122662 108.355997,186.314662 112.410664,188.625329 C112.801331,186.714662 113.031997,185.579995 113.250664,184.515995 C119.498664,188.271995 125.24133,191.725329 132.907997,196.334662 C126.33733,195.693328 121.854664,195.254662 116.18533,194.699995 C118.22933,196.634662 119.263997,198.170662 120.70533,198.883995 C127.10133,202.045328 133.61333,204.970662 139.407997,207.666661 M48.2266655,176.827996 C48.2306655,177.305329 48.2346655,177.781329 48.2386655,178.258662 C53.2546653,179.751996 58.2719985,181.245329 65.4319984,183.375995 C58.2746652,185.861329 53.0146653,188.326662 47.4813321,189.453329 C40.0853323,190.961329 36.3733324,187.171995 37.0986657,179.794662 C37.5759991,174.951996 38.295999,170.134662 38.943999,165.014663 C43.7133322,168.769329 47.9866655,172.131996 52.4466654,175.642662 C50.9426654,176.065329 49.5839988,176.446662 48.2266655,176.827996 M136.014663,175.551996 C140.73333,171.889329 145.00533,168.571996 149.27733,165.254663 C147.491996,173.243996 157.297329,182.758662 147.499996,188.402662 C139.658663,192.921329 132.274663,186.953329 123.966664,183.174662 C130.410663,181.130662 135.25333,179.593329 141.598663,177.581329 C138.698663,176.527996 137.587997,176.123996 136.014663,175.551996 M53.0746653,112.383997 C39.0533324,126.462664 42.7466656,141.78533 49.3879988,157.763996 C33.9266658,147.32933 26.094666,122.535997 33.4453325,109.235997 C33.7466658,114.047997 34.0559991,119.02133 34.3666658,123.995997 C34.8893325,124.01733 35.4106658,124.039997 35.9319991,124.062664 C42.5013323,105.389331 49.0719988,86.7173312 56.0479986,66.8919983 C55.5106653,75.8786648 55.037332,83.7866646 54.5639986,91.6946644 C54.8559986,91.817331 55.1466653,91.941331 55.4386653,92.065331 C61.6173318,78.4893314 67.7973316,64.914665 73.9759982,51.3386654 L75.8759981,52.069332 C74.8599981,55.8719986 73.8426648,59.6733318 72.8266648,63.4759984 C73.3239982,63.6693317 73.8226648,63.8613317 74.3213315,64.0546651 C81.191998,56.8706652 88.0613311,49.6866654 94.2359976,43.2306656 C100.866664,50.1853321 107.927997,57.5919986 116.247997,66.318665 C115.014664,61.0159985 114.187997,57.4613319 113.36133,53.905332 C113.991997,53.6386653 114.622664,53.3706653 115.25333,53.1039987 C121.18933,66.0879983 127.123997,79.0733314 133.49333,93.0039977 L133.49333,70.5853316 C139.42933,87.1239978 146.09733,105.694664 152.763996,124.266664 C153.211996,124.19733 153.659996,124.12933 154.107996,124.059997 C154.353329,119.106664 154.598663,114.151997 154.899996,108.054664 C161.830663,124.471997 154.631996,146.64133 139.78133,157.461329 C146.67333,128.066663 145.787996,120.47733 133.68133,112.518664 C130.506663,116.110664 127.17333,119.883997 123.838664,123.655997 C123.68133,123.442664 123.52533,123.230664 123.366664,123.018664 C125.42533,118.322664 127.482663,113.626664 129.80133,108.335997 C125.62533,107.678664 122.650664,107.209331 118.154664,106.499997 C122.626664,104.611997 125.48533,103.405331 128.343997,102.198664 L128.43733,99.7626642 C125.354664,99.1093309 122.270664,98.4546642 119.139997,97.7906642 C119.834664,97.0039976 120.86933,95.8333309 121.90533,94.6626643 C121.77333,94.017331 121.642664,93.3719977 121.511997,92.725331 C119.05333,92.9959977 116.455997,92.861331 114.170664,93.6386643 C111.337331,94.6026643 108.803997,96.4133309 106.063997,97.6933309 C101.659997,99.7493308 97.0946642,101.431997 97.4506642,107.722664 C97.7853309,113.639997 101.667997,115.555997 106.462664,117.47333 C109.877331,118.838664 112.687997,121.714664 115.76933,123.915997 C115.318664,124.34133 114.867997,124.767997 114.418664,125.194664 L74.1119981,125.194664 C73.7026648,124.52933 73.2919982,123.863997 72.8826648,123.19733 C76.3613314,121.10133 80.179998,119.40133 83.2226646,116.795997 C86.1853312,114.258664 89.4333311,111.157331 90.6133311,107.649331 C92.337331,102.522664 87.8559978,100.221331 83.7946646,98.3146642 C80.599998,96.8146642 77.5986647,94.833331 74.3026648,93.645331 C72.0333315,92.829331 69.4079983,93.005331 66.9413317,92.737331 C66.7773317,93.4199977 66.6133317,94.1039976 66.4493317,94.7866643 C67.954665,96.1506643 69.4599983,97.5146642 71.2839982,99.1666642 C67.154665,99.8679975 61.6666651,93.8959977 60.3546652,102.522664 C63.3093318,103.714664 66.1479983,104.858664 70.7639982,106.718664 C65.6159984,107.349331 62.5266651,107.727997 58.4426652,108.227997 C60.7199985,113.503997 62.6493318,117.97333 64.5786651,122.443997 C64.2439984,122.68533 63.9079984,122.926664 63.5719984,123.167997 C60.3213318,119.82933 57.0706652,116.48933 53.0746653,112.383997 M29.0519993,149.73333 C14.4079996,131.478663 10.8519997,110.229331 12.6879997,86.8066645 C-0.491999988,111.519997 -0.39599999,149.32933 26.8039993,175.294662 C17.3373329,174.177329 11.7746664,168.833329 0.80399998,149.66533 C5.71199986,173.765329 16.6573329,191.335995 38.963999,200.535995 C38.6453324,201.086662 38.327999,201.637328 38.0106657,202.187995 C31.5106659,200.173328 25.0119994,198.158662 19.0826662,196.321328 C27.4079993,213.826661 54.7279986,219.991995 83.3826646,210.127995 C78.1506647,217.001328 73.6639982,218.577328 47.8986655,222.335994 C62.2906651,228.109328 75.7319981,228.198661 89.5253311,224.433328 C92.553331,223.606661 96.1906643,223.742661 99.2546642,224.549328 C112.517331,228.037328 125.458664,228.045328 138.238663,222.529328 C126.303997,220.578661 114.12933,219.838661 104.673331,210.354661 C129.955997,221.429328 151.58533,216.365328 171.269329,195.826662 C163.518663,198.231995 157.129329,200.215995 150.74133,202.198662 L149.515996,200.669328 C171.473329,191.225329 182.667995,173.939996 186.806662,151.455996 C181.290662,162.463996 174.473329,172.078662 159.914663,177.090662 C186.581329,149.82933 190.027995,120.287997 176.506662,87.7813311 C177.563996,110.274664 174.111996,131.50533 159.501329,149.89733 C172.786662,113.183997 173.662662,77.8893314 150.071996,44.9519989 L150.071996,93.0826643 C149.875996,93.2386643 149.68133,93.3946643 149.48533,93.5506643 C147.994663,88.3906645 146.14133,83.3039979 145.094663,78.055998 C143.31333,69.1306649 142.52933,59.9893318 140.44533,51.1479987 C136.88133,36.0213324 128.338663,24.3533327 114.110664,16.9613329 C121.594664,28.7839993 125.08533,41.5626656 124.93733,54.0439986 C115.299997,37.3879991 105.170664,19.8799995 94.2946643,1.08133331 C83.4333312,19.7079995 73.3253315,37.0453324 64.0079984,53.025332 C62.3946651,45.4239989 64.5213317,37.3146657 75.0333315,15.8653329 C60.2853318,24.1333327 51.7546654,35.6613324 48.1839988,50.6946654 C46.0279988,59.7719985 45.2079989,69.1573316 43.3533322,78.315998 C42.2813323,83.6093312 40.343999,88.7266644 38.4106657,95.217331 L38.4106657,45.4679989 C26.634666,59.4519985 21.5919995,76.8359981 20.1639995,95.7746643 C18.7479995,114.53333 22.8786661,132.24933 29.0519993,149.73333" id="path120"></path>
                        </g>
                        <g id="g122" transform="translate(103.036664, 61.051598)" fill-rule="nonzero" fill="#FFD100">
                            <path d="M19.9999995,0 C16.2959996,5.02399987 13.1626663,9.27466643 9.65199976,14.0346663 C8.90399978,12.6746663 8.39199979,11.7466664 7.88133314,10.8173331 C-0.314666659,17.5946662 -2.06266662,25.8893327 3.39866658,32.0786659 C10.8653331,40.5373323 27.3493326,40.9266656 35.7253324,32.8399992 C42.0239989,26.7573327 40.803999,18.6986662 32.1279992,10.4213331 C31.6986659,11.741333 31.3119992,12.9279997 30.7399992,14.6826663 C26.9679993,9.5253331 23.5733327,4.88533321 19.9999995,0" id="path124"></path>
                        </g>
                        <g id="g126" transform="translate(33.678532, 252.683060)" fill-rule="nonzero" fill="#FFD100">
                            <path d="M10.6666664,11.9999997 C7.93733313,9.80799975 5.2173332,7.57333314 2.50533327,5.2973332 C5.2373332,4.58933322 7.97866647,3.83866657 10.7279997,3.04666659 L10.7279997,1.24399997 C7.37333315,2.27999994 4.0319999,3.25199992 0.705333316,4.1599999 L0.705333316,5.31999987 C4.0119999,8.1759998 7.33333315,10.9693331 10.6666664,13.6986663 L10.6666664,11.9999997 Z" id="path128"></path>
                        </g>
                        <g id="g130" transform="translate(58.244399, 256.167460)" fill-rule="nonzero" fill="#FFD100">
                            <path d="M3.9999999,19.9999995 L3.9999999,1.06399997 C2.88533326,0.823999979 1.77066662,0.578666652 0.65866665,0.325333325 L0.65866665,19.2613329 C1.77066662,19.5146662 2.88533326,19.7599995 3.9999999,19.9999995" id="path132"></path>
                        </g>
                        <g id="g134" transform="translate(64.850398, 258.173994)" fill-rule="nonzero" fill="#FFD100">
                            <path d="M3.9999999,7.9999998 C3.55199991,7.40399981 3.32933325,6.6706665 3.32933325,5.80799985 L3.32933325,5.59199986 C4.86266655,6.40666651 6.39866651,7.20799982 7.9359998,7.99733313 C7.59999981,8.93066644 6.88666649,9.30266643 5.79999985,9.10399977 C5.04666654,8.96533311 4.44666656,8.59599979 3.9999999,7.9999998 M8.15333313,4.41199989 C8.64933312,3.66666658 9.14666644,2.91866659 9.64266643,2.17066661 C9.06533311,1.75333329 8.45599979,1.39199997 7.8159998,1.08799997 C7.17466649,0.78399998 6.5666665,0.579999985 5.99066652,0.474666655 C4.74399988,0.24666666 3.66799991,0.277333326 2.76533326,0.575999986 C1.86266662,0.871999978 1.17999997,1.39866663 0.718666649,2.16133328 C0.25466666,2.92399993 0.0239999994,3.8559999 0.0239999994,4.95999988 C0.0239999994,5.98399985 0.290666659,6.98399983 0.825333313,7.95466647 C1.35999997,8.92666644 2.09066661,9.75599976 3.01599992,10.4399997 C3.9439999,11.1226664 4.95866654,11.5666664 6.06266652,11.7679997 C7.56666648,12.041333 8.80399978,11.813333 9.77466642,11.0959997 C10.7439997,10.3786664 11.3746664,9.2253331 11.6639997,7.63866648 C9.09599977,6.40933317 6.53333317,5.14399987 3.9759999,3.84266657 C4.48799989,3.34799992 5.18266654,3.18266659 6.06266652,3.34266658 C6.7346665,3.46533325 7.43199981,3.82133324 8.15333313,4.41199989" id="path136"></path>
                        </g>
                        <g id="g138" transform="translate(76.937731, 260.051593)" fill-rule="nonzero" fill="#FFD100">
                            <path d="M5.3333332,3.9999999 C5.81599985,3.51599991 6.42799984,3.32399992 7.16666649,3.42266658 C7.9399998,3.52533325 8.56399979,3.87733324 9.03999977,4.48133322 C9.51466643,5.08399987 9.75066642,5.80933319 9.75066642,6.65733317 C9.75066642,7.50666648 9.51466643,8.17333313 9.03999977,8.65733312 C8.56399979,9.1413331 7.9399998,9.3333331 7.16666649,9.23066644 C6.42799984,9.13199977 5.81599985,8.77199978 5.3333332,8.1519998 C4.85199988,7.53333315 4.61066655,6.80533316 4.61066655,5.97333318 C4.61066655,5.1413332 4.85199988,4.48399989 5.3333332,3.9999999 M1.97066662,8.48933312 C2.47599994,9.41466643 3.19199992,10.1893331 4.11466656,10.8106664 C5.03999987,11.4319997 6.08933318,11.8239997 7.26399982,11.9786664 C8.43999979,12.1359997 9.4733331,12.0199997 10.3679997,11.641333 C11.2613331,11.2626664 11.9519997,10.6733331 12.4346664,9.88133309 C12.9186663,9.08799977 13.1599997,8.15466646 13.1599997,7.08399982 C13.1599997,6.00933318 12.9186663,5.01599987 12.4346664,4.0959999 C11.9519997,3.17733325 11.2613331,2.42266661 10.3679997,1.82533329 C9.4733331,1.22799997 8.42399979,0.853333312 7.21599982,0.693333316 C6.04133318,0.53733332 4.99999988,0.618666651 4.0919999,0.943999976 C3.18399992,1.26799997 2.47599994,1.81333329 1.97066662,2.58399994 C1.4653333,3.35599992 1.21199997,4.32399989 1.21199997,5.4933332 C1.21199997,6.56399984 1.4653333,7.56266648 1.97066662,8.48933312" id="path140"></path>
                        </g>
                        <g id="g142" transform="translate(91.375198, 261.550927)" fill-rule="nonzero" fill="#FFD100">
                            <path d="M5.3333332,11.9999997 C5.59066653,11.7826664 5.87333319,11.6879997 6.18133318,11.713333 C6.48799984,11.7386664 6.7666665,11.8826664 7.01733316,12.141333 C7.26799982,12.4026664 7.39199982,12.693333 7.39199982,13.013333 C7.39199982,13.3319997 7.26799982,13.6066663 7.01733316,13.8346663 C6.7666665,14.061333 6.48799984,14.1639996 6.18133318,14.137333 C5.87333319,14.1119996 5.59066653,13.9626663 5.3333332,13.693333 C5.07466654,13.421333 4.94533321,13.125333 4.94533321,12.8066663 C4.94533321,12.4866664 5.07466654,12.2186664 5.3333332,11.9999997 M4.33999989,4.26799989 C4.82399988,3.8079999 5.4053332,3.60799991 6.08399985,3.66533324 C6.7786665,3.72266657 7.38133315,4.02533323 7.88933314,4.56799989 C8.39866646,5.11199987 8.65466645,5.73466652 8.65466645,6.43866651 C8.65466645,7.14266649 8.41066646,7.72799981 7.92666647,8.19466646 C7.44133315,8.66133312 6.8506665,8.86533311 6.15599985,8.80666645 C5.4773332,8.74933311 4.88533321,8.44933312 4.37466656,7.90666647 C3.86666657,7.36399982 3.61333324,6.73199983 3.61333324,6.01199985 C3.61333324,5.30799987 3.85466657,4.72666655 4.33999989,4.26799989 M2.8146666,10.2333331 C2.36133327,10.6519997 2.03466662,11.0413331 1.83333329,11.3959997 C1.63066663,11.7506664 1.53066663,12.257333 1.53066663,12.913333 C1.53066663,13.617333 1.73599996,14.2706663 2.14799995,14.8706663 C2.5586666,15.4719996 3.11199992,15.9653329 3.80533324,16.3506663 C4.49999989,16.7346662 5.26799987,16.9639996 6.10799985,17.0346662 C6.93199983,17.1053329 7.70399981,17.0106662 8.42399979,16.7519996 C9.1413331,16.4959996 9.71199976,16.1119996 10.1333331,15.6079996 C10.5533331,15.0999996 10.7639997,14.517333 10.7639997,13.861333 C10.7639997,13.141333 10.6546664,12.5786664 10.4359997,12.1706664 C10.2186664,11.7639997 9.86533309,11.3039997 9.3813331,10.7893331 C10.1733331,10.3333331 10.8373331,9.77999976 11.3706664,9.12666644 C11.9039997,8.47333312 12.1706664,7.61066648 12.1706664,6.5386665 C12.1706664,5.61066653 11.9039997,4.71733322 11.3706664,3.8599999 C10.8373331,2.99999993 10.0999997,2.28933328 9.16399977,1.72399996 C8.22533313,1.15999997 7.19066649,0.831999979 6.05866652,0.735999982 C4.91333321,0.638666651 3.8799999,0.790666647 2.95866659,1.19866664 C2.03866662,1.60666663 1.31599997,2.19333328 0.793333313,2.96266659 C0.267999993,3.73066657 0.0053333332,4.57866655 0.0053333332,5.50666653 C0.0053333332,7.36133315 0.94133331,8.94666644 2.8146666,10.2333331" id="path144"></path>
                        </g>
                        <g id="g146" transform="translate(103.528797, 262.821060)" fill-rule="nonzero" fill="#FFD100">
                            <path d="M5.3333332,7.9999998 C4.87999988,7.46799981 4.65333322,6.76799983 4.65333322,5.90533319 L4.65333322,5.68933319 C6.20799984,6.28133318 7.76266647,6.85999983 9.3173331,7.42666648 C8.97733311,8.40799979 8.25599979,8.88266644 7.15599982,8.84133311 C6.39333317,8.81333311 5.78666652,8.53066645 5.3333332,7.9999998 M9.53599976,3.8079999 C10.0373331,2.99199993 10.5399997,2.17199995 11.0426664,1.35199997 C10.4586664,1.01866664 9.84266642,0.745333315 9.19599977,0.534666653 C8.54799979,0.323999992 7.9319998,0.206666661 7.34933315,0.185333329 C6.08666651,0.138666663 4.99733321,0.326666658 4.0839999,0.754666648 C3.16933325,1.1813333 2.47599994,1.80799995 2.00799995,2.63733327 C1.53733329,3.46799991 1.30399997,4.43333322 1.30399997,5.53733319 C1.30399997,6.56133317 1.57466663,7.52266648 2.11733328,8.41599979 C2.6586666,9.31066643 3.39999991,10.0333331 4.33733322,10.5826664 C5.2773332,11.1306664 6.30533318,11.4266664 7.42133315,11.4679997 C8.94399978,11.5226664 10.1946664,11.1159997 11.1759997,10.2586664 C12.1546664,9.4013331 12.7919997,8.1559998 13.0826663,6.52799984 C10.4906664,5.66933319 7.8999998,4.77599988 5.3093332,3.84666657 C5.82799985,3.27733325 6.5306665,3.01066659 7.42133315,3.04266659 C8.10133313,3.06799992 8.80666645,3.32266658 9.53599976,3.8079999" id="path148"></path>
                        </g>
                        <g id="g150" transform="translate(118.493064, 262.416127)" fill-rule="nonzero" fill="#FFD100">
                            <path d="M3.9999999,19.9999995 L3.9999999,1.06399997 C2.86533326,1.06933331 1.73199996,1.06666664 0.597333318,1.05866664 L0.597333318,19.9946662 C1.73199996,20.0026662 2.86533326,20.0053328 3.9999999,19.9999995" id="path152"></path>
                        </g>
                        <g id="g154" transform="translate(123.864130, 262.976127)" fill-rule="nonzero" fill="#FFD100">
                            <path d="M5.3333332,7.9999998 C4.87999988,7.50133315 4.65333322,6.8186665 4.65333322,5.95466652 L4.65333322,5.73866652 C6.20799984,6.21866651 7.76266647,6.68533317 9.3173331,7.13866649 C8.97733311,8.1439998 8.25599979,8.67199978 7.15599982,8.71066645 C6.39466651,8.73733311 5.78666652,8.49866645 5.3333332,7.9999998 M9.53599976,3.50533325 C10.0373331,2.6506666 10.5399997,1.79599996 11.0413331,0.939999976 C10.4586664,0.64666665 9.84266642,0.418666656 9.19599977,0.25466666 C8.54799979,0.0906666644 7.9319998,0.0186666662 7.35066648,0.039999999 C6.08666651,0.0839999979 4.99733321,0.350666658 4.08266656,0.845333312 C3.16799992,1.33866663 2.4746666,2.01599995 2.00533328,2.87866659 C1.53466663,3.74399991 1.29999997,4.72533322 1.29999997,5.83066652 C1.29999997,6.8546665 1.57199996,7.79466647 2.11466661,8.64933312 C2.65599993,9.50399976 3.39866658,10.1733331 4.33733322,10.6546664 C5.2773332,11.1346664 6.30533318,11.357333 7.42266648,11.3173331 C8.94399978,11.2613331 10.1946664,10.7653331 11.1746664,9.83599975 C12.153333,8.90799978 12.789333,7.61599981 13.0799997,5.96799985 C10.4919997,5.2973332 7.90133314,4.59066655 5.3093332,3.8479999 C5.82799985,3.24133325 6.53199984,2.92399993 7.42266648,2.89199993 C8.10266646,2.86799993 8.80666645,3.07199992 9.53599976,3.50533325" id="path156"></path>
                        </g>
                        <g id="g158" transform="translate(136.556797, 261.832793)" fill-rule="nonzero" fill="#FFD100">
                            <path d="M13.333333,10.6666664 C11.3319997,7.30399982 9.3293331,3.9199999 7.32533315,0.514666654 L7.22933315,0.522666654 C5.11199987,4.26133323 2.99333326,7.9759998 0.873333311,11.6666664 C2.21733328,11.589333 3.55866658,11.501333 4.90133321,11.405333 C5.72533319,9.68133309 6.5506665,7.95333313 7.37466648,6.22266651 C8.10133313,7.8279998 8.82933311,9.4293331 9.55599976,11.0293331 C10.8159997,10.9159997 12.0746664,10.7959997 13.333333,10.6666664" id="path160"></path>
                        </g>
                        <g id="g162" transform="translate(149.369996, 259.749460)" fill-rule="nonzero" fill="#FFD100">
                            <path d="M5.3333332,9.3333331 C4.88266654,8.87599978 4.65599988,8.21333313 4.65599988,7.35066648 L4.65599988,7.13466649 C6.20399984,7.47199981 7.74933314,7.79599981 9.29466643,8.1079998 C8.95599978,9.1453331 8.23999979,9.73866642 7.14533315,9.87733309 C6.38933317,9.97333308 5.78399986,9.79066642 5.3333332,9.3333331 M9.51199976,4.45466656 C10.0106664,3.55599991 10.5093331,2.6546666 11.0079997,1.75199996 C10.4279997,1.5133333 9.81733309,1.3413333 9.1733331,1.23599997 C8.52933312,1.13199997 7.91733314,1.11466664 7.33866648,1.1893333 C6.08266651,1.3493333 4.99866654,1.71466662 4.0879999,2.29199994 C3.17866659,2.86933326 2.48799994,3.60933324 2.01999995,4.51466655 C1.55199996,5.42266653 1.31866663,6.42533317 1.31866663,7.52933315 C1.31866663,8.55466645 1.58799996,9.47066643 2.12933328,10.2759997 C2.66799993,11.0813331 3.40799991,11.6826664 4.34133322,12.0786664 C5.2773332,12.473333 6.29999984,12.601333 7.41066648,12.4599997 C8.92399978,12.2666664 10.1666664,11.6546664 11.1399997,10.6373331 C12.1119997,9.61999976 12.7439997,8.27066646 13.033333,6.5946665 C10.4626664,6.15999985 7.8879998,5.69066652 5.3093332,5.18399987 C5.82533319,4.52933322 6.52533317,4.1479999 7.41066648,4.03466657 C8.08666646,3.9479999 8.78799978,4.0879999 9.51199976,4.45466656" id="path164"></path>
                        </g>
                        <g id="g166" transform="translate(163.981996, 257.783327)" fill-rule="nonzero" fill="#FFD100">
                            <path d="M10.6666664,10.6666664 C11.3306664,9.94533308 11.6679997,9.12666644 11.685333,8.21066646 L11.685333,0.362666658 C10.5679997,0.583999985 9.4493331,0.798666647 8.32933313,1.00533331 L8.32933313,7.60533314 C8.27999979,8.63866645 7.76933314,9.2453331 6.79199983,9.4213331 C6.02533318,9.55866643 5.40799986,9.30666643 4.94399988,8.66666645 C4.47866655,8.02666647 4.24666656,7.13733315 4.24666656,6.00266652 L4.24666656,1.73066662 C3.12533326,1.92133329 2.00133328,2.10533328 0.877333311,2.28133328 L0.877333311,12.7706663 C1.89733329,12.609333 2.91599993,12.4439997 3.93333324,12.2719997 C4.01333323,11.697333 4.09333323,11.1239997 4.17333323,10.5519997 C4.55866655,11.1733331 5.09199987,11.6186664 5.77199986,11.8826664 C6.45199984,12.1466664 7.25733315,12.1946664 8.18533313,12.0239997 C9.17599977,11.841333 10.0039997,11.3866664 10.6666664,10.6666664" id="path168"></path>
                        </g>
                        <g id="g170" transform="translate(186.105062, 253.802260)" fill-rule="nonzero" fill="#FFD100">
                            <path d="M7.9999998,15.9999996 C8.47066645,15.6319996 8.93999978,15.2626663 9.4093331,14.8919996 C6.93199983,10.1573331 4.44933322,5.38799987 1.95866662,0.583999985 C1.49466663,0.93333331 1.02799997,1.27999997 0.562666653,1.62666663 C3.04799992,6.45199984 5.52799986,11.2439997 7.9999998,15.9999996" id="path172"></path>
                        </g>
                        <g id="g174" transform="translate(196.673328, 253.048394)" fill-rule="nonzero" fill="#FFD100">
                            <path d="M1.3333333,13.333333 C4.66666655,10.6039997 7.9879998,7.81066647 11.2933331,4.95466654 L11.2933331,3.79466657 C7.96666647,2.88666659 4.62666655,1.91466662 1.27199997,0.878666645 L1.27199997,2.67999993 C4.02133323,3.47333325 6.7626665,4.22399989 9.49466643,4.93199988 C6.7826665,7.20799982 4.06266657,9.44266643 1.3333333,11.6346664 L1.3333333,13.333333 Z" id="path176"></path>
                        </g>
                        <g id="g178" transform="translate(0.978667, 0.815333)" fill-rule="nonzero" fill="#FFD100">
                            <path d="M7.9999998,262.66666 C8.0279998,256.179994 8.02933313,249.693327 8.03066647,243.206661 L8.03066647,243.027994 C8.03333313,230.890661 8.03733313,218.339995 8.22399979,206.013328 C8.50799979,187.303995 11.2239997,168.311996 16.5279996,147.955996 C25.158666,114.83333 39.2213324,85.6586645 58.3266652,61.2426651 C74.9439981,40.007999 95.7893309,22.3186661 122.02933,7.18666649 L122.283997,7.33866648 C126.523997,9.87066642 130.863997,12.465333 135.014663,15.1666663 C168.026662,36.6746657 193.389328,65.538665 210.398661,100.958664 C225.350661,132.098663 233.850661,165.610663 235.662661,200.565328 C236.021327,207.483995 235.923994,214.602661 235.829327,221.486661 C235.783994,224.722661 235.741327,227.929328 235.739994,231.133328 L235.889327,231.133328 L235.819994,231.574661 L235.714661,231.574661 C235.715994,237.481327 235.806661,243.425327 235.893327,249.173327 C235.962661,253.705327 236.029327,258.173327 236.058661,262.67066 C233.683994,263.781327 231.383994,264.905327 229.082661,266.029327 C224.351994,268.33866 219.467995,270.725327 214.593328,272.639993 C186.630662,283.62266 156.922663,289.075993 123.774664,289.310659 L122.359997,289.315993 C112.119997,289.315993 102.138664,288.538659 93.7239977,287.778659 C75.2893315,286.111993 56.7613319,282.169326 38.6546657,276.059993 C27.5159993,272.30266 17.4853329,267.91866 7.9999998,262.66666 M121.966664,0.327999992 C121.063997,0.327999992 120.211997,0.543999986 119.50133,0.951999976 C92.1279977,16.6199996 70.3999982,34.9986658 53.077332,57.1346652 C33.4079992,82.2706646 18.9399995,112.261331 10.0773331,146.275996 C4.63733322,167.153329 1.85066662,186.659995 1.55733329,205.911995 C1.37066663,218.287995 1.36666663,230.863994 1.36399997,243.026661 L1.36399997,243.178661 C1.36266663,249.969327 1.3613333,256.731994 1.3293333,263.495993 C1.31466663,266.623993 3.48799991,267.799993 4.30533323,268.24266 L4.47466655,268.33466 C14.389333,273.851993 24.8799994,278.447993 36.5239991,282.377326 C55.1226653,288.653326 74.1666648,292.703993 93.1239977,294.417326 C101.686664,295.191993 111.857331,295.982659 122.371997,295.982659 L123.82133,295.977326 C157.803996,295.735993 188.291995,290.131993 217.030661,278.843993 C222.151994,276.833326 227.158661,274.389326 231.999994,272.025327 C234.466661,270.819993 236.847994,269.655993 239.247994,268.54266 C241.574661,267.46266 242.743994,265.54266 242.726661,262.83466 C242.697327,258.249327 242.629327,253.693327 242.559994,249.141327 C242.478661,243.781327 242.386661,237.719994 242.381327,231.858661 C242.437327,231.535994 242.445327,231.209328 242.406661,230.886661 C242.409327,227.842661 242.450661,224.795994 242.493327,221.750661 L242.495994,221.606661 C242.590661,214.610661 242.690661,207.377328 242.321327,200.221328 C240.462661,164.378663 231.743994,130.011997 216.407995,98.0733309 C198.862662,61.5359985 172.702662,31.7626659 138.65333,9.58133309 C134.34533,6.77599983 129.951997,4.1519999 125.702664,1.61599996 L124.79733,1.07466664 C124.003997,0.599999985 122.97333,0.327999992 121.966664,0.327999992" id="path180"></path>
                        </g>
                        <g id="g182" transform="translate(0.978667, 0.815333)" stroke="#FFD100" stroke-width="1.3333333">
                            <path d="M7.9999998,262.66666 C8.0279998,256.179994 8.02933313,249.693327 8.03066647,243.206661 L8.03066647,243.027994 C8.03333313,230.890661 8.03733313,218.339995 8.22399979,206.013328 C8.50799979,187.303995 11.2239997,168.311996 16.5279996,147.955996 C25.158666,114.83333 39.2213324,85.6586645 58.3266652,61.2426651 C74.9439981,40.007999 95.7893309,22.3186661 122.02933,7.18666649 L122.283997,7.33866648 C126.523997,9.87066642 130.863997,12.465333 135.014663,15.1666663 C168.026662,36.6746657 193.389328,65.538665 210.398661,100.958664 C225.350661,132.098663 233.850661,165.610663 235.662661,200.565328 C236.021327,207.483995 235.923994,214.602661 235.829327,221.486661 C235.783994,224.722661 235.741327,227.929328 235.739994,231.133328 L235.889327,231.133328 L235.819994,231.574661 L235.714661,231.574661 C235.715994,237.481327 235.806661,243.425327 235.893327,249.173327 C235.962661,253.705327 236.029327,258.173327 236.058661,262.67066 C233.683994,263.781327 231.383994,264.905327 229.082661,266.029327 C224.351994,268.33866 219.467995,270.725327 214.593328,272.639993 C186.630662,283.62266 156.922663,289.075993 123.774664,289.310659 L122.359997,289.315993 C112.119997,289.315993 102.138664,288.538659 93.7239977,287.778659 C75.2893315,286.111993 56.7613319,282.169326 38.6546657,276.059993 C27.5159993,272.30266 17.4853329,267.91866 7.9999998,262.66666 Z M121.966664,0.327999992 C121.063997,0.327999992 120.211997,0.543999986 119.50133,0.951999976 C92.1279977,16.6199996 70.3999982,34.9986658 53.077332,57.1346652 C33.4079992,82.2706646 18.9399995,112.261331 10.0773331,146.275996 C4.63733322,167.153329 1.85066662,186.659995 1.55733329,205.911995 C1.37066663,218.287995 1.36666663,230.863994 1.36399997,243.026661 L1.36399997,243.178661 C1.36266663,249.969327 1.3613333,256.731994 1.3293333,263.495993 C1.31466663,266.623993 3.48799991,267.799993 4.30533323,268.24266 L4.47466655,268.33466 C14.389333,273.851993 24.8799994,278.447993 36.5239991,282.377326 C55.1226653,288.653326 74.1666648,292.703993 93.1239977,294.417326 C101.686664,295.191993 111.857331,295.982659 122.371997,295.982659 L123.82133,295.977326 C157.803996,295.735993 188.291995,290.131993 217.030661,278.843993 C222.151994,276.833326 227.158661,274.389326 231.999994,272.025327 C234.466661,270.819993 236.847994,269.655993 239.247994,268.54266 C241.574661,267.46266 242.743994,265.54266 242.726661,262.83466 C242.697327,258.249327 242.629327,253.693327 242.559994,249.141327 C242.478661,243.781327 242.386661,237.719994 242.381327,231.858661 C242.437327,231.535994 242.445327,231.209328 242.406661,230.886661 C242.409327,227.842661 242.450661,224.795994 242.493327,221.750661 L242.495994,221.606661 C242.590661,214.610661 242.690661,207.377328 242.321327,200.221328 C240.462661,164.378663 231.743994,130.011997 216.407995,98.0733309 C198.862662,61.5359985 172.702662,31.7626659 138.65333,9.58133309 C134.34533,6.77599983 129.951997,4.1519999 125.702664,1.61599996 L124.79733,1.07466664 C124.003997,0.599999985 122.97333,0.327999992 121.966664,0.327999992 L121.966664,0.327999992 Z" id="path184"></path>
                        </g>
                    </g>
                </g>
            </g>
        </g>
    </g>
</svg>