<?xml version="1.0" encoding="UTF-8"?>
<svg width="18px" height="18px" viewBox="0 0 18 18" version="1.1" xmlns="http://www.w3.org/2000/svg" xmlns:xlink="http://www.w3.org/1999/xlink">
    <!-- Generator: Sketch 58 (84663) - https://sketch.com -->
    <title>linkedin</title>
    <desc>Created with Sketch.</desc>
    <defs>
        <polygon id="path-1" points="0 0 17.999 0 17.999 17.94 0 17.94"></polygon>
    </defs>
    <g id="Page-1" stroke="none" stroke-width="1" fill="none" fill-rule="evenodd">
        <g id="linkedin">
            <g id="Group-3">
                <g id="Fill-1-Clipped">
                    <mask id="mask-2" fill="white">
                        <use xlink:href="#path-1"></use>
                    </mask>
                    <g id="path-1"></g>
                    <path d="M16.667,0 L1.327,0 C0.595,0 0,0.581 0,1.298 L0,16.701 C0,17.418 0.595,18 1.327,18 L16.667,18 C17.401,18 17.999,17.418 17.999,16.701 L17.999,1.298 C17.999,0.581 17.401,0 16.667,0" id="Fill-1" fill="#FDFDFD" fill-rule="nonzero" mask="url(#mask-2)"></path>
                </g>
            </g>
            <path d="M4.004,2.478 C4.857,2.478 5.551,3.172 5.551,4.026 C5.551,4.881 4.857,5.575 4.004,5.575 C3.146,5.575 2.454,4.881 2.454,4.026 C2.454,3.172 3.146,2.478 4.004,2.478 L4.004,2.478 Z M2.666,15.338 L5.339,15.338 L5.339,6.748 L2.666,6.748 L2.666,15.338 Z" id="Fill-4" fill="#012169" fill-rule="nonzero"></path>
            <path d="M7.014,6.748 L9.572,6.748 L9.572,7.922 L9.609,7.922 C9.966,7.247 10.836,6.535 12.135,6.535 C14.839,6.535 15.338,8.313 15.338,10.627 L15.338,15.338 L12.669,15.338 L12.669,11.16 C12.669,10.164 12.651,8.883 11.281,8.883 C9.893,8.883 9.681,9.969 9.681,11.089 L9.681,15.338 L7.014,15.338 L7.014,6.748" id="Fill-5" fill="#012169" fill-rule="nonzero"></path>
        </g>
    </g>
</svg>